<svg xmlns="http://www.w3.org/2000/svg" width="80" height="80" viewBox="0 0 80 80"><defs><style>.a{fill:#3a8e82;}</style></defs><path class="a" d="M28.333,99.334H9.167A9.174,9.174,0,0,1,0,90.168V51.834a9.174,9.174,0,0,1,9.167-9.166H57.5a9.174,9.174,0,0,1,9.167,9.166V65.168a2.5,2.5,0,0,1-5,0V51.834A4.172,4.172,0,0,0,57.5,47.668H9.167A4.172,4.172,0,0,0,5,51.834V90.168a4.172,4.172,0,0,0,4.167,4.166H28.333a2.5,2.5,0,0,1,0,5Zm0,0" transform="translate(0 -36.001)"/><path class="a" d="M64.167,133H2.5a2.5,2.5,0,0,1,0-5H64.167a2.5,2.5,0,0,1,0,5Zm0,0" transform="translate(0 -108)"/><path class="a" d="M87.832,18.333a2.5,2.5,0,0,1-2.5-2.5V2.5a2.5,2.5,0,0,1,5,0V15.833A2.5,2.5,0,0,1,87.832,18.333Zm0,0" transform="translate(-71.999)"/><path class="a" d="M311.832,18.333a2.5,2.5,0,0,1-2.5-2.5V2.5a2.5,2.5,0,0,1,5,0V15.833A2.5,2.5,0,0,1,311.832,18.333Zm0,0" transform="translate(-260.999)"/><path class="a" d="M256.334,278A21.667,21.667,0,1,1,278,256.334,21.691,21.691,0,0,1,256.334,278Zm0-38.333A16.667,16.667,0,1,0,273,256.334,16.685,16.685,0,0,0,256.334,239.668Zm0,0" transform="translate(-198.001 -198.001)"/><path class="a" d="M359.832,322a2.5,2.5,0,0,1-2.5-2.5V301.168a2.5,2.5,0,0,1,5,0V319.5A2.5,2.5,0,0,1,359.832,322Zm0,0" transform="translate(-301.499 -252.001)"/><path class="a" d="M319.5,362.332H301.168a2.5,2.5,0,0,1,0-5H319.5a2.5,2.5,0,0,1,0,5Zm0,0" transform="translate(-252.001 -301.499)"/></svg>