<svg xmlns="http://www.w3.org/2000/svg" width="13.723" height="14.25" viewBox="0 0 13.723 14.25"><defs><style>.a{fill:#8d8da2;}</style></defs><path class="a" d="M11.278,5A3.7,3.7,0,0,0,9.2,11.762,5.3,5.3,0,0,0,6,16.612H7.056a4.235,4.235,0,0,1,4.222-4.222,3.784,3.784,0,0,0,.528-.041v2.416c0,2.745,3.589,4.328,3.747,4.381l.211.105.211-.105c.158-.053,3.747-1.637,3.747-4.381v-2.9h-.475a3.792,3.792,0,0,1-2.059-.633,3.426,3.426,0,0,0-1.425-.423,2.608,2.608,0,0,0-1.319.423,5.373,5.373,0,0,1-.993.459A3.7,3.7,0,0,0,11.278,5Zm0,1.056A2.639,2.639,0,1,1,8.639,8.695,2.613,2.613,0,0,1,11.278,6.056Zm4.486,5.806a2.027,2.027,0,0,1,.9.316l.159.053a5.308,5.308,0,0,0,1.847.634v1.847c0,1.742-2.27,3.008-2.9,3.325-.633-.317-2.9-1.583-2.9-3.325V12.864a5.257,5.257,0,0,0,1.9-.634l.159-.053h.105A1,1,0,0,1,15.764,11.861Z" transform="translate(-6 -5)"/></svg>