<svg xmlns="http://www.w3.org/2000/svg" width="19.994" height="19.994" viewBox="0 0 19.994 19.994"><defs><style>.a{fill:#fbbd00;}.b{fill:#0f9d58;}.c{fill:#31aa52;}.d{fill:#3c79e6;}.e{fill:#cf2d48;}.f{fill:#eb4132;}</style></defs><path class="a" d="M4.7,106.289a5.254,5.254,0,0,1,.749-2.709v-3.365H2.068a9.955,9.955,0,0,0,0,12.148H5.447V109A5.254,5.254,0,0,1,4.7,106.289Z" transform="translate(0 -96.292)"/><path class="b" d="M198.349,373.706,196,376.055l2.349,2.349a9.946,9.946,0,0,0,6.1-2.068v-3.375h-3.375A5.323,5.323,0,0,1,198.349,373.706Z" transform="translate(-188.36 -358.41)"/><path class="c" d="M56.2,325.477l-3.379,3.379a10.183,10.183,0,0,0,.867.988,9.956,9.956,0,0,0,7.086,2.935v-4.7A5.326,5.326,0,0,1,56.2,325.477Z" transform="translate(-50.755 -312.784)"/><path class="d" d="M266.022,199.621a10.108,10.108,0,0,0-.164-1.816l-.088-.481H256v4.7h4.754a5.3,5.3,0,0,1-2.031,2.178l3.375,3.375a10.183,10.183,0,0,0,.988-.867A9.956,9.956,0,0,0,266.022,199.621Z" transform="translate(-246.027 -189.648)"/><path class="e" d="M202.113,6.257l.415.415L205.85,3.35l-.415-.415A9.956,9.956,0,0,0,198.349,0L196,2.349,198.349,4.7A5.289,5.289,0,0,1,202.113,6.257Z" transform="translate(-188.376 0)"/><path class="f" d="M60.776,4.7V0a9.956,9.956,0,0,0-7.086,2.935,10.172,10.172,0,0,0-.867.988L56.2,7.3a5.326,5.326,0,0,1,4.575-2.6Z" transform="translate(-50.754 0)"/></svg>