<svg xmlns="http://www.w3.org/2000/svg" width="20" height="20" viewBox="0 0 20 20"><defs><style>.a,.d{fill:none;}.a{stroke:#707070;opacity:0;}.b{fill:#4e4e5a;}.c{stroke:none;}</style></defs><g transform="translate(-2180 -1114)"><g class="a" transform="translate(2180 1114)"><rect class="c" width="20" height="20"/><rect class="d" x="0.5" y="0.5" width="19" height="19"/></g><path class="b" d="M13.667,4A1.6,1.6,0,0,0,12,5.667V6.5H7V8.167h.833V21.5a2.513,2.513,0,0,0,2.5,2.5h10a2.513,2.513,0,0,0,2.5-2.5V8.167h.833V6.5h-5V5.667A1.6,1.6,0,0,0,17,4Zm0,1.667H17V6.5H13.667ZM9.5,8.167H21.167V21.5a.831.831,0,0,1-.833.833h-10A.831.831,0,0,1,9.5,21.5Zm1.667,2.5v9.167h1.667V10.667Zm3.333,0v9.167h1.667V10.667Zm3.333,0v9.167H19.5V10.667Z" transform="translate(2175 1110)"/></g></svg>